<svg xmlns="http://www.w3.org/2000/svg" viewBox="0 0 54 20" width="54" height="20">
    <path d="M10.2 10.4c0-.7-.1-1.3-.2-1.9H5.5v3.6h2.6c-.1.7-.5 1.4-1.1 1.8v2.4h1.7c1.7-1.5 2.5-3.8 2.5-5.9z" fill="#4285F4"/>
    <path d="M5.5 15.2c1.4 0 2.6-.5 3.5-1.3l-1.7-2.4c-.5.3-1.1.5-1.8.5-1.4 0-2.5-.9-2.9-2.2H.8v2.5c.9 1.7 2.6 2.9 4.7 2.9z" fill="#34A853"/>
    <path d="M2.6 9.8c-.1-.3-.2-.7-.2-1.1s.1-.8.2-1.1V5.1H.8C.3 6.1 0 7.3 0 8.7s.3 2.6.8 3.6l1.8-2.5z" fill="#FBBC05"/>
    <path d="M5.5 5.5c.8 0 1.5.3 2 .8l1.6-1.6C8.1 3.8 6.9 3.3 5.5 3.3 3.4 3.3 1.7 4.5.8 6.2l1.8 2.5c.4-1.3 1.5-3.2 2.9-3.2z" fill="#EA4335"/>
    <path d="M15.4 7.6h-2.1v6.2h1.5V11.4h.6c1.1 0 2-.9 2-2s-.9-1.8-2-1.8zm0 2.4h-.6V9.0h.6c.4 0 .7.3.7.7s-.3.7-.7.7zm5.9-.9c-.8 0-1.4.6-1.4 1.4s.6 1.4 1.4 1.4 1.4-.6 1.4-1.4-.6-1.4-1.4-1.4zm0 4.1c-1.5 0-2.6-1.1-2.6-2.7s1.1-2.7 2.6-2.7 2.6 1.1 2.6 2.7-1.1 2.7-2.6 2.7zm5.9-4.2l-1.7 4.3h-1.4l.6-1.4-1.7-4.1h1.5l.9 2.4.9-2.4h1.5z" fill="#5F6368"/>
  </svg>