<svg xmlns="http://www.w3.org/2000/svg" viewBox="0 0 48 48" width="48" height="48">
  <path fill="#4285F4" d="M36.5 24.25c0-.85-.07-1.68-.21-2.47H24v4.94h7.01c-.3 1.62-1.22 3-2.58 3.91v3.25h4.18c2.44-2.25 3.89-5.55 3.89-9.63z"/>
  <path fill="#34A853" d="M24 37c3.51 0 6.46-1.17 8.61-3.15l-4.18-3.25c-1.16.78-2.65 1.25-4.43 1.25-3.41 0-6.3-2.3-7.33-5.4H6.38v3.35C8.53 34.07 15.82 37 24 37z"/>
  <path fill="#FBBC05" d="M16.67 26.45c-.26-.78-.41-1.62-.41-2.45s.15-1.67.41-2.45v-3.35H6.38C5.5 19.97 5 21.93 5 24s.5 4.03 1.38 5.8l10.29-3.35z"/>
  <path fill="#EA4335" d="M24 16.15c1.91 0 3.63.66 4.98 1.95l3.73-3.73C30.46 12.21 27.51 11 24 11c-8.18 0-15.47 2.93-17.62 7.15l10.29 3.35c1.03-3.1 3.92-5.4 7.33-5.4z"/>
</svg>