<svg xmlns="http://www.w3.org/2000/svg" viewBox="0 0 48 48" width="48" height="48">
  <path fill="#FF5F00" d="M24 12c-2.48 3.09-3.98 7.02-3.98 11.27c0 4.25 1.5 8.18 3.98 11.27c2.48-3.09 3.98-7.02 3.98-11.27c0-4.25-1.5-8.18-3.98-11.27z"/>
  <path fill="#EB001B" d="M20.02 23.27c0-4.25 1.5-8.18 3.98-11.27C20.61 9.4 16.59 8 12.12 8C5.43 8 0 13.37 0 20s5.43 12 12.12 12c4.47 0 8.49-1.4 11.88-4c-2.48-3.09-3.98-7.02-3.98-11.27c0 .54 0 1.08 0 1.27z"/>
  <path fill="#F79E1B" d="M35.88 8c-4.47 0-8.49 1.4-11.88 4c2.48 3.09 3.98 7.02 3.98 11.27c0 4.25-1.5 8.18-3.98 11.27c3.39 2.6 7.41 4 11.88 4C42.57 32 48 26.63 48 20S42.57 8 35.88 8z"/>
</svg>