<svg xmlns="http://www.w3.org/2000/svg" viewBox="0 0 54 20" width="54" height="20">
    <path d="M9.1 4.5h-4.3v11h2.5V12.1h1.8c2.4 0 4.3-1.9 4.3-4.3s-1.9-4.3-4.3-4.3zm0 5.1h-1.8V7.0h1.8c1.1 0 1.8.7 1.8 1.8s-.7 1.8-1.8 1.8zm11.2-2.1c-.8 0-1.4.6-1.4 1.4v6.6h-2.5V8.9c0-2.4 1.9-4.3 4.3-4.3h1.8v2.5h-2.2zM28.4 4.5l-2.4 6.1-2.4-6.1h-2.7l3.8 8.9-2.3 5.4h2.5l5.9-14.3h-2.4zm10.7.3v2.2h-3.3v5.6c0 1.1.7 1.5 1.5 1.5h1.8v2.2h-2.5c-2.4 0-3.3-1.5-3.3-3.7V7.0h-1.8V4.8h1.8V2.3l2.5-.7v3.2h3.3z" fill="#002C77"/>
    <path d="M49.3 6.5c-1.1 0-1.8.6-2.2 1.3-.4-.7-1.1-1.3-2.2-1.3-1.1 0-1.8.7-1.8 1.7v6.6h-2.5V8.9c0-2.4 1.9-4.3 4.3-4.3.8 0 1.5.3 2 .8.5-.5 1.2-.8 2-.8 2.4 0 4.3 1.9 4.3 4.3v6.6h-2.5V8.9c0-1.1-.7-1.7-1.7-1.7z" fill="#00B9F5"/>
  </svg>