<svg xmlns="http://www.w3.org/2000/svg" viewBox="0 0 48 48" width="48" height="48">
  <path fill="#151B60" d="M19.98 32h3.58l2.24-13.82h-3.58z"/>
  <path fill="#151B60" d="M36.63 18.36c-.71-.27-1.81-.56-3.15-.56-3.47 0-5.91 1.85-5.93 4.5-.02 1.95 1.75 3.04 3.08 3.69 1.37.65 1.83 1.08 1.82 1.67-.02.9-.99 1.31-1.91 1.31-2.07 0-3.2-.56-4.9-1.39l-.69 4.27c1.17.54 3.34 1.01 5.58 1.03 4.14 0 6.84-2.05 6.88-5.22.02-3.13-1.89-4.4-4.82-5.78-1.5-.75-2.04-1.25-2.03-2.01 0-.67.74-1.38 2.33-1.38 1.8 0 3.11.39 4.12.83l.71-4.36z"/>
  <path fill="#151B60" d="M43.4 18.18h-2.78c-.86 0-1.51.5-1.89 1.4L33.5 32h3.76l.75-2.08h4.59l.43 2.08h3.32l-2.95-13.82zm-4.49 8.78l1.9-5.22 1.09 5.22h-2.99z"/>
  <path fill="#F2A012" d="M12.11 18.18H5.97L5.7 19.5c2.69.69 5.11 2.34 7.4 3.73l-1 5.92L19.5 18.18h-7.39z"/>
</svg>