<svg xmlns="http://www.w3.org/2000/svg" viewBox="0 0 60 20" width="60" height="20">
    <path d="M11.5 16.5l3.2-10h2.5l-3.2 10h-2.5zm11.9-9.5c-.5-.2-1.3-.4-2.2-.4-2.5 0-4.2 1.3-4.2 3.1 0 1.4 1.2 2.1 2.2 2.6.9.4 1.3.7 1.3 1.1 0 .6-.7.9-1.4.9-1.8 0-2.4-.4-3.1-.7l-.4 1.9c.5.2 1.5.4 2.5.4 2.6 0 4.3-1.3 4.3-3.3 0-2.3-3.2-2.5-3.2-3.6 0-.3.3-.7 1.1-.7.7 0 1.2.2 1.5.3l.3-1.9zm10 9.5l2-10h2l-2 10h-2zm-18.7-10H11L9.1 12.2 8.7 10c-.2-1-.9-1.8-1.9-2.2L3.2 6.5l-.1-.1.1-.3H8c.5 0 .9.3 1 .8l2 8.2 2.4-10z" fill="#1A1F71"/>
  </svg>